<svg xmlns="http://www.w3.org/2000/svg" viewBox="0 23.31999969482422 48.220001220703125 23.900001525878906" data-asc="0.935546875" width="48.220001220703125" height="23.900001525878906"><defs/><g fill="#000000"><g transform="translate(0, 0)"><path d="M47.44 28.44Q48.22 28.44 48.22 29.76Q48.22 32.03 45.04 35.64L43.65 37.06Q37.33 43.38 31.74 45.48Q28.27 46.78 26.76 45.36Q25.51 44.17 24.78 41.50L24.19 39.38L18.99 42.58L15.99 44.29Q10.62 47.22 7.93 47.22Q4.49 47.22 2.20 44.56Q0 42.04 0 38.72Q0 35.45 2.61 32.89Q6.35 29.22 14.40 26.17Q22.02 23.32 26.71 23.32Q28.30 23.32 28.30 24.88Q28.30 25.95 27.88 26.49Q27.47 27.03 26.17 27.59L23.10 28.91Q16.26 31.76 13.09 34.84Q12.18 35.69 12.18 36.50Q12.18 37.30 13.48 37.30Q14.75 37.30 19.38 34.57L21.41 33.37Q26.12 30.54 29.30 30.54Q31.98 30.54 32.86 32.91Q33.08 33.54 33.28 34.19Q33.47 34.84 33.67 35.35Q34.11 36.55 34.46 36.55Q34.81 36.55 35.47 36.19Q36.13 35.84 36.93 35.29Q37.72 34.74 38.57 34.08L41.53 31.71Q45.46 28.44 47.44 28.44Z"/></g></g></svg>